<svg xmlns="http://www.w3.org/2000/svg" width="1200" height="800" viewBox="0 0 1200 800">
  <defs>
    <linearGradient id="grad3" x1="0%" y1="0%" x2="100%" y2="0%">
      <stop offset="0%" style="stop-color:#8B0000;stop-opacity:1" />
      <stop offset="50%" style="stop-color:#c41e3a;stop-opacity:1" />
      <stop offset="100%" style="stop-color:#ffd700;stop-opacity:1" />
    </linearGradient>
  </defs>
  
  <rect width="1200" height="800" fill="url(#grad3)"/>
  
  <text x="150" y="100" font-size="40" fill="white" opacity="0.8">&#10052;</text>
  <text x="300" y="150" font-size="50" fill="white" opacity="0.9">&#10053;</text>
  <text x="900" y="120" font-size="45" fill="white" opacity="0.85">&#10052;</text>
  <text x="1050" y="180" font-size="38" fill="white" opacity="0.8">&#10054;</text>
  <text x="180" y="650" font-size="42" fill="white" opacity="0.9">&#10053;</text>
  <text x="1000" y="700" font-size="48" fill="white" opacity="0.85">&#10052;</text>
  
  <rect x="250" y="150" width="60" height="60" fill="#c41e3a"/>
  <rect x="260" y="140" width="40" height="80" fill="#ffd700" opacity="0.5"/>
  
  <rect x="350" y="160" width="55" height="55" fill="#165b33"/>
  <rect x="360" y="150" width="35" height="75" fill="#fff" opacity="0.6"/>
  
  <rect x="850" y="150" width="65" height="65" fill="#ffd700"/>
  <rect x="860" y="140" width="45" height="85" fill="#c41e3a" opacity="0.5"/>
  
  <rect x="950" y="165" width="50" height="50" fill="#fff"/>
  <rect x="960" y="155" width="30" height="70" fill="#165b33" opacity="0.6"/>
  
  <text x="500" y="120" font-size="40" fill="#ffd700">&#11088;</text>
  <text x="650" y="90" font-size="35" fill="#ffd700">&#10024;</text>
  <text x="750" y="140" font-size="38" fill="#ffd700">&#11088;</text>
  
  <rect x="80" y="380" width="1040" height="340" rx="24" fill="#fff" opacity="0.95"/>
  <text x="600" y="500" font-size="85" text-anchor="middle" fill="#c41e3a" font-family="Verdana" font-weight="bold">&#127873; MEMBER LOUNGE &#127876;</text>
  <text x="600" y="600" font-size="45" text-anchor="middle" fill="#165b33" font-family="Verdana">Relax &amp; Socialize</text>
</svg>
